<?xml version="1.0" encoding="utf-8"?>
<!-- Generator: Adobe Illustrator 27.3.1, SVG Export Plug-In . SVG Version: 6.00 Build 0)  -->
<svg version="1.1" id="Layer_1" xmlns="http://www.w3.org/2000/svg" xmlns:xlink="http://www.w3.org/1999/xlink" x="0px" y="0px"
	 viewBox="0 0 512 512" style="enable-background:new 0 0 512 512;" xml:space="preserve">
<style type="text/css">
	.st0{fill-rule:evenodd;clip-rule:evenodd;fill:#FFFFFF;}
</style>
<g id="Page-1">
	<g id="Desktop" transform="translate(-292.000000, -81.000000)">
		<g id="Group-2" transform="translate(292.000000, 81.000000)">
			<path id="Rectangle" class="st0" d="M28,0h456c15.5,0,28,12.5,28,28v456c0,15.5-12.5,28-28,28H28c-15.5,0-28-12.5-28-28V28
				C0,12.5,12.5,0,28,0z"/>
		</g>
	</g>
	<g>
		<path d="M169.2,100.9h60v283.6h-56.4v-20c-17.1,16.8-35.7,25.2-56,25.2c-28.8,0-51.6-11.6-68.4-34.7c-14.9-21-22.4-46.7-22.4-77.1
			c0-27.9,7.2-52.6,21.6-73.9c16.3-23.4,38.1-35.1,65.6-35.1c19.2,0,37.9,7.1,56,21.2V100.9z M127.4,344.1
			c15.3,0,26.8-7.4,34.6-22.3c5.9-11.7,8.8-26,8.8-43.1c0-42.5-13.1-63.8-39.4-63.8c-15,0-26.5,7.3-34.6,21.9
			c-6.2,11.4-9.2,25.3-9.2,41.5c0,16.2,2.5,30.3,7.6,42.3C102.5,336.3,113.2,344.1,127.4,344.1z"/>
		<path d="M404.4,174.1l58-0.4l-0.4,210c0,49.9-33.7,74.8-101.2,74.8c-18.9,0-35.9-2.5-50.8-7.6c-19.2-6.4-32.5-16.5-40-30.4
			c-2.1-4-3.9-9.1-5.4-15.2c-1.5-6.1-2.2-12.8-2.2-20H324c0,10.4,4.1,18.5,12.4,24.4c7.2,5.6,16.1,8.4,26.8,8.4
			c15.5,0,26-4.1,31.6-12.4c3.7-6.1,5.6-17.6,5.6-34.4v-14.4c-18.9,11.7-37.1,17.6-54.6,17.6c-27.9,0-49.7-10.2-65.4-30.7
			c-14.4-18.4-21.5-42-21.5-71.1c0-27.1,7.2-50.6,21.6-70.3c16.3-21,37.7-31.5,64.4-31.5c13.1,0,23.9,1.6,32.4,4.8
			c8.5,3.2,17.6,9.3,27.2,18.4V174.1z M362.2,327.7c25.5,0,38.2-18.5,38.2-55.4c0-16.7-2.1-29.4-6.4-37.9
			c-6.1-11.4-16.7-17.1-31.8-17.1c-26.8,0-40.2,18.9-40.2,56.6C322,309.8,335.4,327.7,362.2,327.7z"/>
	</g>
</g>
</svg>
