<?xml version="1.0" encoding="utf-8"?>
<!-- Generator: Adobe Illustrator 27.3.1, SVG Export Plug-In . SVG Version: 6.00 Build 0)  -->
<svg version="1.1" id="Layer_1" xmlns="http://www.w3.org/2000/svg" xmlns:xlink="http://www.w3.org/1999/xlink" x="0px" y="0px"
	 viewBox="0 0 115.8 21.8" style="enable-background:new 0 0 115.8 21.8;" xml:space="preserve">
<g>
	<path d="M10.2,0.3h3.6v16.8h-3.3v-1.2c-1,1-2.1,1.5-3.3,1.5c-1.7,0-3.1-0.7-4.1-2.1c-0.9-1.2-1.3-2.8-1.3-4.6
		c0-1.7,0.4-3.1,1.3-4.4c1-1.4,2.3-2.1,3.9-2.1c1.1,0,2.2,0.4,3.3,1.3V0.3z M7.7,14.7c0.9,0,1.6-0.4,2.1-1.3
		c0.4-0.7,0.5-1.5,0.5-2.6c0-2.5-0.8-3.8-2.3-3.8c-0.9,0-1.6,0.4-2.1,1.3C5.5,9,5.4,9.9,5.4,10.8s0.2,1.8,0.5,2.5
		C6.2,14.3,6.9,14.7,7.7,14.7z"/>
	<path d="M16.9,0.3h3.6v2.8h-3.6V0.3z M16.9,4.6h3.6v12.4h-3.6V4.6z"/>
	<path d="M23.1,4.7h3.7v7.9c0,0.6,0.2,1,0.5,1.4s0.8,0.5,1.3,0.5c0.6,0,1.1-0.2,1.5-0.5c0.4-0.3,0.6-0.8,0.6-1.3v-8h3.7v12.4h-3.7
		v-1.1c-1.1,1-2.4,1.5-3.7,1.5c-2.6,0-3.9-1.4-3.9-4.3V4.7z"/>
	<path d="M45.1,8.9c-0.7-1.2-1.5-1.7-2.4-1.7c-0.8,0-1.5,0.4-2,1.2C40.2,9,40,9.8,40,10.7c0,0.5,0,1,0.1,1.4
		c0.1,0.4,0.3,0.8,0.5,1.1c0.5,0.8,1.2,1.3,2.2,1.3c0.6,0,1.1-0.2,1.5-0.5c0.3-0.2,0.6-0.6,0.9-1.2l2.8,1.4
		c-0.8,1.1-1.6,1.9-2.5,2.5c-0.9,0.5-2,0.8-3.3,0.8c-1.8,0-3.3-0.6-4.4-1.8s-1.7-2.7-1.7-4.6c0-2,0.5-3.6,1.7-4.8
		C39,5,40.5,4.3,42.4,4.3c1.3,0,2.3,0.2,3.1,0.7c0.8,0.5,1.6,1.2,2.4,2.3L45.1,8.9z"/>
	<path d="M55.4,8.9V8.4c0-0.5-0.1-0.9-0.4-1.2c-0.2-0.3-0.6-0.5-1.1-0.5c-0.6,0-1,0.1-1.3,0.3c-0.3,0.2-0.6,0.6-0.8,1.1h-3.5
		c0-1.3,0.6-2.3,1.7-3c1-0.5,2.1-0.8,3.6-0.8c3.5,0,5.3,1.3,5.3,4v7.7c0,0.4,0.1,0.8,0.3,1.3h-3.6v-1.3c-1.3,1-2.6,1.4-3.8,1.4
		c-1.1,0-2.1-0.3-2.8-1c-0.8-0.7-1.1-1.6-1.1-2.7c0-1.2,0.4-2.2,1.3-2.9c0.7-0.5,1.7-1,3-1.3L55.4,8.9z M51.4,13.3
		c0,0.4,0.1,0.8,0.4,1c0.3,0.3,0.7,0.4,1.1,0.4c0.8,0,1.5-0.4,2-1.2c0.4-0.6,0.6-1.4,0.6-2.3V11c-0.6,0.2-1.1,0.3-1.6,0.5
		c-0.4,0.1-0.7,0.2-0.8,0.3C51.9,12.2,51.4,12.7,51.4,13.3z"/>
	<path d="M69.6,4.6l3.4,0l0,12.5c0,3-2,4.4-6,4.4c-1.1,0-2.1-0.2-3-0.5c-1.1-0.4-1.9-1-2.4-1.8c-0.1-0.2-0.2-0.5-0.3-0.9
		c-0.1-0.4-0.1-0.8-0.1-1.2h3.7c0,0.6,0.2,1.1,0.7,1.4c0.4,0.3,1,0.5,1.6,0.5c0.9,0,1.5-0.2,1.9-0.7c0.2-0.4,0.3-1,0.3-2v-0.9
		c-1.1,0.7-2.2,1-3.2,1c-1.7,0-3-0.6-3.9-1.8c-0.9-1.1-1.3-2.5-1.3-4.2c0-1.6,0.4-3,1.3-4.2c1-1.2,2.2-1.9,3.8-1.9
		c0.8,0,1.4,0.1,1.9,0.3c0.5,0.2,1,0.6,1.6,1.1V4.6z M67.1,13.8c1.5,0,2.3-1.1,2.3-3.3c0-1-0.1-1.7-0.4-2.2c-0.4-0.7-1-1-1.9-1
		c-1.6,0-2.4,1.1-2.4,3.4C64.7,12.7,65.5,13.8,67.1,13.8z"/>
	<path d="M82.6,8.9V8.4c0-0.5-0.1-0.9-0.4-1.2c-0.2-0.3-0.6-0.5-1.1-0.5c-0.6,0-1,0.1-1.3,0.3c-0.3,0.2-0.6,0.6-0.8,1.1h-3.5
		c0-1.3,0.6-2.3,1.7-3c1-0.5,2.1-0.8,3.6-0.8c3.5,0,5.3,1.3,5.3,4v7.7c0,0.4,0.1,0.8,0.3,1.3h-3.6v-1.3c-1.3,1-2.6,1.4-3.8,1.4
		c-1.1,0-2.1-0.3-2.8-1c-0.8-0.7-1.1-1.6-1.1-2.7c0-1.2,0.4-2.2,1.3-2.9c0.7-0.5,1.7-1,3-1.3L82.6,8.9z M78.6,13.3
		c0,0.4,0.1,0.8,0.4,1c0.3,0.3,0.7,0.4,1.1,0.4c0.8,0,1.5-0.4,2-1.2c0.4-0.6,0.6-1.4,0.6-2.3V11c-0.6,0.2-1.1,0.3-1.6,0.5
		c-0.4,0.1-0.7,0.2-0.8,0.3C79.1,12.2,78.6,12.7,78.6,13.3z"/>
	<path d="M89.2,4.7h3.7l0,1c1-0.9,2.2-1.4,3.7-1.4c2.4,0,3.6,1.3,3.6,3.9v8.8h-3.7V9.1c0-0.5-0.2-1-0.5-1.4
		c-0.3-0.4-0.8-0.5-1.3-0.5c-1.3,0-1.9,0.8-1.9,2.5v7.3h-3.7V4.7z"/>
	<path d="M110.6,4.6l3.4,0l0,12.5c0,3-2,4.4-6,4.4c-1.1,0-2.1-0.2-3-0.5c-1.1-0.4-1.9-1-2.4-1.8c-0.1-0.2-0.2-0.5-0.3-0.9
		c-0.1-0.4-0.1-0.8-0.1-1.2h3.7c0,0.6,0.2,1.1,0.7,1.4c0.4,0.3,1,0.5,1.6,0.5c0.9,0,1.5-0.2,1.9-0.7c0.2-0.4,0.3-1,0.3-2v-0.9
		c-1.1,0.7-2.2,1-3.2,1c-1.7,0-3-0.6-3.9-1.8c-0.9-1.1-1.3-2.5-1.3-4.2c0-1.6,0.4-3,1.3-4.2c1-1.2,2.2-1.9,3.8-1.9
		c0.8,0,1.4,0.1,1.9,0.3c0.5,0.2,1,0.6,1.6,1.1V4.6z M108.1,13.8c1.5,0,2.3-1.1,2.3-3.3c0-1-0.1-1.7-0.4-2.2c-0.4-0.7-1-1-1.9-1
		c-1.6,0-2.4,1.1-2.4,3.4C105.7,12.7,106.5,13.8,108.1,13.8z"/>
</g>
</svg>
